<mxfile host="app.diagrams.net" agent="Mozilla/5.0 (X11; Linux x86_64) AppleWebKit/537.36 (KHTML, like Gecko) Chrome/127.0.0.0 Safari/537.36" version="24.7.7">
  <diagram name="Pagina-1" id="DN32iVkq9IwnW6-JcDtY">
    <mxGraphModel dx="989" dy="502" grid="1" gridSize="10" guides="1" tooltips="1" connect="1" arrows="1" fold="1" page="1" pageScale="1" pageWidth="827" pageHeight="1169" math="0" shadow="0">
      <root>
        <mxCell id="0" />
        <mxCell id="1" parent="0" />
        <mxCell id="n_jpsUFpKnE-sReIqwT4-1" value="" style="html=1;dropTarget=0;whiteSpace=wrap;shadow=1;" vertex="1" parent="1">
          <mxGeometry x="40" y="180" width="210" height="280" as="geometry" />
        </mxCell>
        <mxCell id="n_jpsUFpKnE-sReIqwT4-2" value="" style="shape=module;jettyWidth=8;jettyHeight=4;shadow=1;" vertex="1" parent="n_jpsUFpKnE-sReIqwT4-1">
          <mxGeometry x="1" width="20" height="20" relative="1" as="geometry">
            <mxPoint x="-27" y="7" as="offset" />
          </mxGeometry>
        </mxCell>
        <mxCell id="n_jpsUFpKnE-sReIqwT4-3" value="«component»&lt;br&gt;&lt;b&gt;API Gateway&lt;/b&gt;" style="html=1;dropTarget=0;whiteSpace=wrap;shadow=1;" vertex="1" parent="1">
          <mxGeometry x="400" y="231" width="180" height="90" as="geometry" />
        </mxCell>
        <mxCell id="n_jpsUFpKnE-sReIqwT4-4" value="" style="shape=module;jettyWidth=8;jettyHeight=4;shadow=1;" vertex="1" parent="n_jpsUFpKnE-sReIqwT4-3">
          <mxGeometry x="1" width="20" height="20" relative="1" as="geometry">
            <mxPoint x="-27" y="7" as="offset" />
          </mxGeometry>
        </mxCell>
        <mxCell id="n_jpsUFpKnE-sReIqwT4-5" value="«component»&lt;br&gt;&lt;b&gt;Event broker&lt;/b&gt;" style="html=1;dropTarget=0;whiteSpace=wrap;shadow=1;" vertex="1" parent="1">
          <mxGeometry x="400" y="370" width="180" height="90" as="geometry" />
        </mxCell>
        <mxCell id="n_jpsUFpKnE-sReIqwT4-6" value="" style="shape=module;jettyWidth=8;jettyHeight=4;shadow=1;" vertex="1" parent="n_jpsUFpKnE-sReIqwT4-5">
          <mxGeometry x="1" width="20" height="20" relative="1" as="geometry">
            <mxPoint x="-27" y="7" as="offset" />
          </mxGeometry>
        </mxCell>
        <mxCell id="n_jpsUFpKnE-sReIqwT4-7" value="" style="html=1;points=[[0,0,0,0,5],[0,1,0,0,-5],[1,0,0,0,5],[1,1,0,0,-5]];perimeter=orthogonalPerimeter;outlineConnect=0;targetShapes=umlLifeline;portConstraint=eastwest;newEdgeStyle={&quot;curved&quot;:0,&quot;rounded&quot;:0};shadow=1;" vertex="1" parent="1">
          <mxGeometry x="245" y="259" width="10" height="33" as="geometry" />
        </mxCell>
        <mxCell id="n_jpsUFpKnE-sReIqwT4-8" value="" style="html=1;points=[[0,0,0,0,5],[0,1,0,0,-5],[1,0,0,0,5],[1,1,0,0,-5]];perimeter=orthogonalPerimeter;outlineConnect=0;targetShapes=umlLifeline;portConstraint=eastwest;newEdgeStyle={&quot;curved&quot;:0,&quot;rounded&quot;:0};shadow=1;" vertex="1" parent="1">
          <mxGeometry x="246" y="380" width="10" height="70" as="geometry" />
        </mxCell>
        <mxCell id="n_jpsUFpKnE-sReIqwT4-10" value="" style="rounded=0;orthogonalLoop=1;jettySize=auto;html=1;endArrow=halfCircle;endFill=0;endSize=6;strokeWidth=1;sketch=0;exitX=0.95;exitY=0.52;exitDx=0;exitDy=0;exitPerimeter=0;shadow=1;" edge="1" parent="1" source="n_jpsUFpKnE-sReIqwT4-7">
          <mxGeometry relative="1" as="geometry">
            <mxPoint x="290" y="259" as="sourcePoint" />
            <mxPoint x="320" y="276" as="targetPoint" />
          </mxGeometry>
        </mxCell>
        <mxCell id="n_jpsUFpKnE-sReIqwT4-11" value="" style="rounded=0;orthogonalLoop=1;jettySize=auto;html=1;endArrow=oval;endFill=0;sketch=0;sourcePerimeterSpacing=0;targetPerimeterSpacing=0;endSize=10;exitX=0;exitY=0.5;exitDx=0;exitDy=0;shadow=1;" edge="1" parent="1" source="n_jpsUFpKnE-sReIqwT4-3">
          <mxGeometry relative="1" as="geometry">
            <mxPoint x="310" y="276" as="sourcePoint" />
            <mxPoint x="320" y="276" as="targetPoint" />
          </mxGeometry>
        </mxCell>
        <mxCell id="n_jpsUFpKnE-sReIqwT4-12" value="" style="ellipse;whiteSpace=wrap;html=1;align=center;aspect=fixed;fillColor=none;strokeColor=none;resizable=0;perimeter=centerPerimeter;rotatable=0;allowArrows=0;points=[];outlineConnect=1;shadow=1;" vertex="1" parent="1">
          <mxGeometry x="315" y="260" width="10" height="10" as="geometry" />
        </mxCell>
        <mxCell id="n_jpsUFpKnE-sReIqwT4-13" value="" style="rounded=0;orthogonalLoop=1;jettySize=auto;html=1;endArrow=halfCircle;endFill=0;endSize=6;strokeWidth=1;sketch=0;exitX=0;exitY=0.222;exitDx=0;exitDy=0;exitPerimeter=0;shadow=1;" edge="1" parent="1" source="n_jpsUFpKnE-sReIqwT4-5">
          <mxGeometry relative="1" as="geometry">
            <mxPoint x="370" y="340" as="sourcePoint" />
            <mxPoint x="320" y="390" as="targetPoint" />
          </mxGeometry>
        </mxCell>
        <mxCell id="n_jpsUFpKnE-sReIqwT4-14" value="" style="rounded=0;orthogonalLoop=1;jettySize=auto;html=1;endArrow=oval;endFill=0;sketch=0;sourcePerimeterSpacing=0;targetPerimeterSpacing=0;endSize=10;shadow=1;" edge="1" parent="1" source="n_jpsUFpKnE-sReIqwT4-8">
          <mxGeometry relative="1" as="geometry">
            <mxPoint x="402" y="392" as="sourcePoint" />
            <mxPoint x="320" y="390" as="targetPoint" />
          </mxGeometry>
        </mxCell>
        <mxCell id="n_jpsUFpKnE-sReIqwT4-15" value="" style="rounded=0;orthogonalLoop=1;jettySize=auto;html=1;endArrow=halfCircle;endFill=0;endSize=6;strokeWidth=1;sketch=0;exitX=0.002;exitY=0.786;exitDx=0;exitDy=0;exitPerimeter=0;shadow=1;" edge="1" parent="1" source="n_jpsUFpKnE-sReIqwT4-5">
          <mxGeometry relative="1" as="geometry">
            <mxPoint x="400" y="437.5000000000001" as="sourcePoint" />
            <mxPoint x="320" y="440" as="targetPoint" />
          </mxGeometry>
        </mxCell>
        <mxCell id="n_jpsUFpKnE-sReIqwT4-16" value="" style="rounded=0;orthogonalLoop=1;jettySize=auto;html=1;endArrow=oval;endFill=0;sketch=0;sourcePerimeterSpacing=0;targetPerimeterSpacing=0;endSize=10;exitX=0.929;exitY=0.5;exitDx=0;exitDy=0;exitPerimeter=0;shadow=1;" edge="1" parent="1">
          <mxGeometry relative="1" as="geometry">
            <mxPoint x="255.28999999999996" y="439.9999999999999" as="sourcePoint" />
            <mxPoint x="320" y="440" as="targetPoint" />
          </mxGeometry>
        </mxCell>
        <mxCell id="n_jpsUFpKnE-sReIqwT4-17" value="&amp;lt;&amp;lt;component&amp;gt;&amp;gt;&lt;br&gt;&lt;b&gt;Service&lt;/b&gt;" style="text;html=1;align=center;verticalAlign=middle;whiteSpace=wrap;rounded=0;shadow=1;" vertex="1" parent="1">
          <mxGeometry x="95" y="198" width="100" height="30" as="geometry" />
        </mxCell>
        <mxCell id="n_jpsUFpKnE-sReIqwT4-18" value="«component»&lt;br&gt;&lt;b&gt;Business Logic&lt;/b&gt;" style="html=1;dropTarget=0;whiteSpace=wrap;shadow=1;" vertex="1" parent="1">
          <mxGeometry x="60" y="390" width="130" height="50" as="geometry" />
        </mxCell>
        <mxCell id="n_jpsUFpKnE-sReIqwT4-19" value="" style="shape=module;jettyWidth=8;jettyHeight=4;shadow=1;" vertex="1" parent="n_jpsUFpKnE-sReIqwT4-18">
          <mxGeometry x="1" width="20" height="20" relative="1" as="geometry">
            <mxPoint x="-27" y="7" as="offset" />
          </mxGeometry>
        </mxCell>
        <mxCell id="n_jpsUFpKnE-sReIqwT4-20" value="«component»&lt;br&gt;&lt;b&gt;HTTP Server&lt;/b&gt;" style="html=1;dropTarget=0;whiteSpace=wrap;shadow=1;" vertex="1" parent="1">
          <mxGeometry x="60" y="250" width="130" height="50" as="geometry" />
        </mxCell>
        <mxCell id="n_jpsUFpKnE-sReIqwT4-21" value="" style="shape=module;jettyWidth=8;jettyHeight=4;shadow=1;" vertex="1" parent="n_jpsUFpKnE-sReIqwT4-20">
          <mxGeometry x="1" width="20" height="20" relative="1" as="geometry">
            <mxPoint x="-27" y="7" as="offset" />
          </mxGeometry>
        </mxCell>
        <mxCell id="n_jpsUFpKnE-sReIqwT4-22" value="" style="rounded=0;orthogonalLoop=1;jettySize=auto;html=1;endArrow=halfCircle;endFill=0;endSize=6;strokeWidth=1;sketch=0;exitX=0.5;exitY=0;exitDx=0;exitDy=0;entryX=0.514;entryY=0.686;entryDx=0;entryDy=0;entryPerimeter=0;shadow=1;" edge="1" target="n_jpsUFpKnE-sReIqwT4-24" parent="1" source="n_jpsUFpKnE-sReIqwT4-18">
          <mxGeometry relative="1" as="geometry">
            <mxPoint x="170" y="345" as="sourcePoint" />
          </mxGeometry>
        </mxCell>
        <mxCell id="n_jpsUFpKnE-sReIqwT4-23" value="" style="rounded=0;orthogonalLoop=1;jettySize=auto;html=1;endArrow=oval;endFill=0;sketch=0;sourcePerimeterSpacing=0;targetPerimeterSpacing=0;endSize=10;exitX=0.5;exitY=1;exitDx=0;exitDy=0;entryX=0.629;entryY=0.857;entryDx=0;entryDy=0;entryPerimeter=0;shadow=1;" edge="1" target="n_jpsUFpKnE-sReIqwT4-24" parent="1" source="n_jpsUFpKnE-sReIqwT4-20">
          <mxGeometry relative="1" as="geometry">
            <mxPoint x="130" y="345" as="sourcePoint" />
          </mxGeometry>
        </mxCell>
        <mxCell id="n_jpsUFpKnE-sReIqwT4-24" value="" style="ellipse;whiteSpace=wrap;html=1;align=center;aspect=fixed;fillColor=none;strokeColor=none;resizable=0;perimeter=centerPerimeter;rotatable=0;allowArrows=0;points=[];outlineConnect=1;shadow=1;" vertex="1" parent="1">
          <mxGeometry x="120" y="340" width="10" height="10" as="geometry" />
        </mxCell>
        <mxCell id="n_jpsUFpKnE-sReIqwT4-25" value="" style="rounded=0;orthogonalLoop=1;jettySize=auto;html=1;endArrow=halfCircle;endFill=0;endSize=6;strokeWidth=1;sketch=0;shadow=1;" edge="1" target="n_jpsUFpKnE-sReIqwT4-27" parent="1" source="n_jpsUFpKnE-sReIqwT4-7">
          <mxGeometry relative="1" as="geometry">
            <mxPoint x="240" y="274" as="sourcePoint" />
          </mxGeometry>
        </mxCell>
        <mxCell id="n_jpsUFpKnE-sReIqwT4-26" value="" style="rounded=0;orthogonalLoop=1;jettySize=auto;html=1;endArrow=oval;endFill=0;sketch=0;sourcePerimeterSpacing=0;targetPerimeterSpacing=0;endSize=10;exitX=1;exitY=0.5;exitDx=0;exitDy=0;shadow=1;" edge="1" target="n_jpsUFpKnE-sReIqwT4-27" parent="1" source="n_jpsUFpKnE-sReIqwT4-20">
          <mxGeometry relative="1" as="geometry">
            <mxPoint x="190.13" y="270.15" as="sourcePoint" />
          </mxGeometry>
        </mxCell>
        <mxCell id="n_jpsUFpKnE-sReIqwT4-27" value="" style="ellipse;whiteSpace=wrap;html=1;align=center;aspect=fixed;fillColor=none;strokeColor=none;resizable=0;perimeter=centerPerimeter;rotatable=0;allowArrows=0;points=[];outlineConnect=1;shadow=1;" vertex="1" parent="1">
          <mxGeometry x="215" y="270" width="10" height="10" as="geometry" />
        </mxCell>
        <mxCell id="n_jpsUFpKnE-sReIqwT4-35" value="" style="rounded=0;orthogonalLoop=1;jettySize=auto;html=1;endArrow=halfCircle;endFill=0;endSize=6;strokeWidth=1;sketch=0;shadow=1;" edge="1" target="n_jpsUFpKnE-sReIqwT4-37" parent="1" source="n_jpsUFpKnE-sReIqwT4-8">
          <mxGeometry relative="1" as="geometry">
            <mxPoint x="230" y="415" as="sourcePoint" />
          </mxGeometry>
        </mxCell>
        <mxCell id="n_jpsUFpKnE-sReIqwT4-36" value="" style="rounded=0;orthogonalLoop=1;jettySize=auto;html=1;endArrow=oval;endFill=0;sketch=0;sourcePerimeterSpacing=0;targetPerimeterSpacing=0;endSize=10;exitX=1;exitY=0.5;exitDx=0;exitDy=0;shadow=1;" edge="1" target="n_jpsUFpKnE-sReIqwT4-37" parent="1" source="n_jpsUFpKnE-sReIqwT4-18">
          <mxGeometry relative="1" as="geometry">
            <mxPoint x="190" y="415" as="sourcePoint" />
            <Array as="points">
              <mxPoint x="200" y="415" />
            </Array>
          </mxGeometry>
        </mxCell>
        <mxCell id="n_jpsUFpKnE-sReIqwT4-37" value="" style="ellipse;whiteSpace=wrap;html=1;align=center;aspect=fixed;fillColor=none;strokeColor=none;resizable=0;perimeter=centerPerimeter;rotatable=0;allowArrows=0;points=[];outlineConnect=1;shadow=1;" vertex="1" parent="1">
          <mxGeometry x="205" y="410" width="10" height="10" as="geometry" />
        </mxCell>
        <mxCell id="n_jpsUFpKnE-sReIqwT4-38" value="publish" style="text;html=1;align=center;verticalAlign=middle;whiteSpace=wrap;rounded=0;shadow=1;" vertex="1" parent="1">
          <mxGeometry x="297.5" y="360" width="45" height="20" as="geometry" />
        </mxCell>
        <mxCell id="n_jpsUFpKnE-sReIqwT4-39" value="subscribe" style="text;html=1;align=center;verticalAlign=middle;whiteSpace=wrap;rounded=0;shadow=1;" vertex="1" parent="1">
          <mxGeometry x="293.75" y="410" width="52.5" height="20" as="geometry" />
        </mxCell>
        <mxCell id="n_jpsUFpKnE-sReIqwT4-40" value="REST" style="text;html=1;align=center;verticalAlign=middle;whiteSpace=wrap;rounded=0;shadow=1;" vertex="1" parent="1">
          <mxGeometry x="297.5" y="250" width="45" height="20" as="geometry" />
        </mxCell>
      </root>
    </mxGraphModel>
  </diagram>
</mxfile>
